<svg xmlns="http://www.w3.org/2000/svg">
  <defs>
    <symbol id="icon-coffee" viewBox="0 0 100 125">
        <g><path class="st0" d="M37.07,47.67c3.44,1.14,7.59,1.8,12.07,1.8c7.06,0,13.32-1.65,17.24-4.2c-3.92-2.55-10.18-4.2-17.24-4.2    c-7.06,0-13.32,1.65-17.24,4.2c-0.27,10.5,2.98,21.61,9.06,29.07C37.99,64.71,36.41,55.68,37.07,47.67z"/><path class="st0" d="M78.84,68.4c-1.51-1.25-3.39-2.4-5.55-3.41c2.54-1.17,4.9-2.48,6.73-3.94c3.85-3.09,5.48-6.78,2.21-11.16    c-0.56-0.74-1.2-1.3-1.91-1.68c-1.05-0.55-2.19-0.7-3.39-0.46c-1.1,0.21-2.22,0.75-3.33,1.57c-0.65,0.48-1.29,1.08-1.92,1.76    c0.12-1.37,0.18-2.77,0.18-4.19l-0.01-0.12c-0.31-3.52-2.9-6.32-7.05-8.22c-3.99-1.82-9.48-2.83-15.76-2.83    c-6.16,0-11.6,0.64-15.67,2.24c-4.37,1.72-7.19,4.52-7.73,8.75l-0.02,0.17c0,5.95,1.06,11.53,2.9,16.39    c-4.05,1.35-7.44,3.1-9.88,5.13c-2.8,2.33-4.39,5.05-4.39,7.99c0,4.66,4.02,8.78,10.52,11.67c6.16,2.74,14.64,4.44,23.97,4.44    c9.33,0,17.81-1.7,23.97-4.44c6.5-2.89,10.52-7.01,10.52-11.67C83.23,73.45,81.65,70.73,78.84,68.4z M70.78,57.15    c1.38-2.56,2.94-4.48,4.47-5.62c0.77-0.58,1.52-0.94,2.19-1.07c0.58-0.11,1.12-0.05,1.59,0.19c0.35,0.18,0.68,0.48,0.99,0.89    c2.09,2.8,0.92,5.26-1.73,7.37c-2.18,1.75-5.31,3.29-8.58,4.63c-0.25-0.09-0.5-0.18-0.76-0.26c0.11-0.29,0.22-0.58,0.32-0.88    c0.02-0.07,0.05-0.13,0.08-0.2c0.02-0.06,0.04-0.12,0.06-0.18c0.25-0.74,0.49-1.49,0.71-2.26c0.01-0.04,0.02-0.08,0.03-0.12    c0.21-0.75,0.4-1.52,0.57-2.3C70.75,57.27,70.77,57.21,70.78,57.15z M34.37,40.53c3.72-1.46,8.83-2.05,14.67-2.05    c5.9,0,11,0.91,14.62,2.57c3.21,1.46,5.2,3.48,5.44,5.9c0,3.33-0.36,6.53-1,9.53c-0.17,0.78-0.36,1.54-0.56,2.29    c-0.02,0.06-0.03,0.12-0.05,0.18c-0.21,0.73-0.43,1.45-0.67,2.15c-0.04,0.11-0.08,0.22-0.11,0.33c-0.25,0.7-0.51,1.4-0.8,2.07    c-0.03,0.06-0.05,0.12-0.08,0.18c-0.28,0.65-0.58,1.29-0.89,1.91c-0.44,0.88-0.91,1.73-1.41,2.54c-0.06,0.09-0.12,0.18-0.18,0.27    c-0.22,0.35-0.45,0.69-0.68,1.02c-0.07,0.1-0.14,0.2-0.21,0.3c-0.27,0.37-0.54,0.74-0.82,1.09c-0.02,0.03-0.04,0.06-0.07,0.09    c-0.3,0.37-0.61,0.73-0.93,1.08c-0.09,0.1-0.18,0.19-0.27,0.29c-0.23,0.25-0.47,0.48-0.7,0.72c-0.11,0.11-0.22,0.21-0.33,0.32    c-0.26,0.24-0.52,0.47-0.78,0.69c-0.08,0.07-0.16,0.14-0.24,0.2c-0.31,0.25-0.62,0.49-0.94,0.72c-0.14,0.1-0.29,0.2-0.43,0.3    c-0.19,0.13-0.39,0.26-0.58,0.38c-0.16,0.1-0.32,0.19-0.48,0.28c-0.2,0.11-0.4,0.22-0.6,0.32c-0.15,0.08-0.31,0.16-0.46,0.24    c-0.26,0.12-0.52,0.24-0.78,0.34c-0.12,0.05-0.24,0.1-0.36,0.15c-0.33,0.13-0.67,0.24-1.01,0.34c-0.13,0.04-0.27,0.07-0.4,0.11    c-0.25,0.07-0.5,0.13-0.75,0.18c-0.14,0.03-0.28,0.06-0.43,0.08c-0.26,0.05-0.53,0.08-0.79,0.11c-0.13,0.01-0.25,0.03-0.38,0.04    c-0.39,0.03-0.78,0.06-1.18,0.06c-0.4,0-0.79-0.02-1.18-0.06c-0.13-0.01-0.25-0.03-0.38-0.04c-0.27-0.03-0.53-0.07-0.79-0.11    c-0.14-0.03-0.29-0.05-0.43-0.08c-0.25-0.05-0.5-0.11-0.75-0.18c-0.14-0.04-0.27-0.07-0.41-0.11c-0.33-0.1-0.67-0.21-0.99-0.34    c-0.13-0.05-0.26-0.11-0.39-0.16c-0.26-0.11-0.51-0.21-0.76-0.34c-0.16-0.08-0.32-0.16-0.47-0.24c-0.2-0.1-0.39-0.21-0.58-0.32    c-0.16-0.09-0.33-0.19-0.49-0.29c-0.19-0.12-0.38-0.24-0.57-0.37c-0.15-0.1-0.3-0.2-0.45-0.31c-0.31-0.22-0.62-0.46-0.92-0.7    c-0.09-0.07-0.18-0.15-0.27-0.23c-0.26-0.22-0.52-0.44-0.77-0.68c-0.11-0.11-0.23-0.22-0.34-0.33c-0.23-0.23-0.47-0.46-0.69-0.71    c-0.09-0.1-0.19-0.19-0.28-0.29c-0.31-0.35-0.62-0.7-0.93-1.08c-0.02-0.03-0.05-0.06-0.07-0.09c-0.28-0.35-0.55-0.71-0.82-1.08    c-0.07-0.1-0.14-0.2-0.22-0.31c-0.23-0.33-0.46-0.67-0.68-1.02c-0.06-0.09-0.12-0.18-0.18-0.28c-0.55-0.89-1.07-1.83-1.56-2.82    c-0.04-0.09-0.09-0.18-0.13-0.27c-0.2-0.42-0.39-0.84-0.58-1.27c-2.09-4.85-3.31-10.62-3.31-16.83    C28.82,43.91,31,41.85,34.37,40.53z M71.6,85.55c-5.82,2.59-13.9,4.19-22.85,4.19c-8.95,0-17.03-1.6-22.85-4.19    c-5.49-2.44-8.88-5.69-8.88-9.16c0-2.07,1.23-4.08,3.39-5.88c2.21-1.84,5.36-3.44,9.19-4.69c0.05,0.1,0.1,0.2,0.15,0.3    c0.17,0.36,0.35,0.72,0.53,1.07c0.08,0.16,0.17,0.32,0.25,0.47c0.18,0.33,0.36,0.66,0.54,0.98c0.08,0.15,0.17,0.29,0.25,0.44    c0.21,0.36,0.43,0.71,0.66,1.05c0.06,0.09,0.12,0.18,0.18,0.27c0.03,0.04,0.05,0.08,0.08,0.12c0.18,0.26,0.36,0.52,0.55,0.78    c-2.36,1.34-3.77,2.97-3.77,4.75c0,4.47,8.84,8.1,19.74,8.1c10.9,0,19.74-3.63,19.74-8.1c0-1.78-1.41-3.42-3.77-4.75    c0.18-0.26,0.37-0.51,0.55-0.78c0.03-0.04,0.05-0.08,0.08-0.12c0.06-0.09,0.11-0.18,0.17-0.27c0.23-0.35,0.45-0.7,0.66-1.06    c0.09-0.14,0.17-0.29,0.25-0.43c0.19-0.32,0.37-0.65,0.54-0.98c0.03-0.05,0.06-0.1,0.08-0.15c0.9-0.33,1.81-0.67,2.72-1.03    c2.98,1.14,5.48,2.5,7.31,4.03c2.16,1.8,3.39,3.8,3.39,5.88C80.48,79.86,77.08,83.11,71.6,85.55z"/><path class="st0" d="M42.1,27.51c-0.45-9.22,19.18-9.03,8.57-19.91C50.8,20.24,31.88,18,42.1,27.51z"/><path class="st0" d="M49.55,34.71c-0.52-10.46,21.77-10.25,9.72-22.59C59.42,26.45,37.96,23.91,49.55,34.71z"/>
        </g>
    </symbol>
    <symbol id="icon-cheers" viewBox="0 0 100 125">
        <g><path d="M48.88,18.17l-17.07-6.32c-0.96-0.36-2.04,0.09-2.46,1.03L14,46.96c-1.55,3.44-1.6,7.4-0.15,10.88   c1.2,2.87,3.36,5.24,6.07,6.72L12.5,84.62l-5.09-1.89c-1.01-0.37-2.13,0.14-2.51,1.15c-0.37,1.01,0.14,2.13,1.15,2.51l6.92,2.56   c0,0,0,0,0,0c0,0,0,0,0,0l6.92,2.56c0.22,0.08,0.45,0.12,0.68,0.12c0.79,0,1.54-0.49,1.83-1.27c0.37-1.01-0.14-2.13-1.15-2.51   l-5.09-1.89l7.43-20.07c0.94,0.2,1.9,0.3,2.85,0.3c2.11,0,4.22-0.49,6.13-1.45c3.37-1.69,5.91-4.74,6.97-8.35l10.53-35.86   C50.37,19.57,49.85,18.53,48.88,18.17z M35.8,55.31c-0.77,2.62-2.54,4.74-4.98,5.96c-2.44,1.23-5.2,1.38-7.76,0.43   c-2.56-0.95-4.55-2.86-5.61-5.38c-1.05-2.52-1.02-5.28,0.11-7.77l14.61-32.41l13.65,5.05L35.8,55.31z"/><path d="M95.12,92.7c-0.35-1.02-1.45-1.57-2.47-1.22l-5.15,1.74l-6.85-20.27c2.75-1.4,4.98-3.7,6.26-6.54   c1.55-3.43,1.62-7.4,0.17-10.88l-14.37-34.5c-0.39-0.95-1.45-1.43-2.43-1.1l-17.24,5.82c-0.97,0.33-1.52,1.35-1.26,2.34l9.5,36.15   c0.96,3.65,3.41,6.76,6.73,8.55c2,1.08,4.24,1.63,6.48,1.63c0.82,0,1.65-0.08,2.47-0.23l6.85,20.27l-5.15,1.74   c-1.02,0.34-1.57,1.45-1.22,2.47c0.28,0.81,1.03,1.33,1.85,1.33c0.21,0,0.42-0.03,0.62-0.1l13.99-4.73   C94.92,94.83,95.47,93.72,95.12,92.7z M69.86,69.35c-2.4-1.29-4.11-3.46-4.81-6.1l-9.03-34.39l13.79-4.66l13.67,32.82   c1.05,2.52,1.01,5.28-0.12,7.77c-1.13,2.49-3.17,4.34-5.76,5.21c0,0,0,0,0,0C75.01,70.88,72.26,70.64,69.86,69.35z"/><path d="M51.66,11.8l-3.12-7.42c-0.42-0.99-1.56-1.46-2.56-1.04c-0.99,0.42-1.46,1.56-1.04,2.56l3.12,7.42   c0.31,0.75,1.04,1.19,1.8,1.19c0.25,0,0.51-0.05,0.76-0.15C51.61,13.94,52.08,12.8,51.66,11.8z"/><path d="M58.48,19.63c0.39,0.48,0.95,0.73,1.52,0.73c0.43,0,0.86-0.14,1.22-0.43l6.27-5.05c0.84-0.68,0.97-1.91,0.3-2.74   c-0.68-0.84-1.91-0.97-2.74-0.3l-6.27,5.05C57.94,17.56,57.8,18.79,58.48,19.63z"/><path d="M56.39,11.34c0.22,0.08,0.45,0.12,0.67,0.12c0.8,0,1.54-0.49,1.83-1.28l2.77-7.56c0.37-1.01-0.15-2.13-1.16-2.5   C59.5-0.25,58.37,0.27,58,1.28l-2.77,7.56C54.86,9.85,55.38,10.97,56.39,11.34z"/>
        </g>
    </symbol>
    <symbol id="icon-ice-cream" viewBox="0 0 100 125">
        <path d="M82.12,35.42c0.17-1.03,0.26-2.07,0.26-3.12c0-9.09-6.28-16.86-15.06-18.8C64.82,5.51,57.39,0,48.94,0  C38.87,0,30.62,7.64,29.76,17.56c-6.99,3.02-11.63,10.01-11.63,17.68c0,0.03,0,0.05,0,0.08c-0.03,0.01-0.06,0.02-0.09,0.04  c-0.82,0.45-1.26,1.33-1.11,2.26c1.06,6.48,5.44,21.9,23.32,26.79c0.41,1.53,1.55,3.47,4.62,4.49c0.61,2.83,1.45,8.39,0.28,13.79  c-6.43,1.39-16.46,4.27-18.15,8.93c-0.06,0.16-0.09,0.32-0.09,0.49v1.52c0,0.24,0.06,0.47,0.17,0.68c0.48,0.89,3.83,5.35,22.88,5.7  c0.01,0,0.02,0,0.03,0c0,0,0,0,0,0c0,0,0,0,0,0c0,0,0,0,0,0c0,0,0,0,0,0c0.01,0,0.02,0,0.03,0c19.05-0.35,22.4-4.81,22.88-5.7  c0.11-0.21,0.17-0.44,0.17-0.68v-1.52c0-0.17-0.03-0.33-0.09-0.49c-1.69-4.65-11.72-7.53-18.15-8.93  c-1.18-5.4-0.33-10.96,0.28-13.79c3.06-1.03,4.21-2.97,4.62-4.49c17.92-4.91,22.28-20.37,23.33-26.86  C83.2,36.7,82.83,35.89,82.12,35.42z M79.53,32.3c0,1.22-0.14,2.44-0.41,3.63c-5.57,4.76-17.17,5.99-23.78,6.29  c0.86-2.21,1.31-4.59,1.31-6.98c0-5.23-2.11-10.18-5.83-13.79c3.12-3.54,7.53-5.56,12.3-5.56c0.95,0,1.9,0.08,2.82,0.24  C73.82,17.5,79.53,24.3,79.53,32.3z M48.94,2.85c6.74,0,12.72,4.11,15.2,10.21c-0.34-0.02-0.68-0.03-1.01-0.03  c-5.63,0-10.83,2.38-14.49,6.57c-3.26-2.35-7.2-3.63-11.25-3.63c-1.57,0-3.12,0.19-4.63,0.57C34.05,8.72,40.8,2.85,48.94,2.85z   M31.63,19.88c1.84-0.69,3.78-1.04,5.77-1.04c3.86,0,7.61,1.37,10.55,3.85c3.72,3.13,5.85,7.71,5.85,12.56  c0,2.45-0.55,4.87-1.6,7.07c-1.34,0.01-2.15-0.01-2.16-0.01c-0.01,0-0.03,0-0.04,0c-0.01,0-0.03,0-0.04,0  c-0.21,0.01-20.72,0.54-28.94-6.25c-0.01-0.27-0.02-0.53-0.02-0.81C20.99,28.44,25.26,22.27,31.63,19.88z M49.94,65.86  c0.02,0,0.04,0,0.06,0c0,0,0,0,0,0c0,0,0,0,0,0c0,0,0,0,0,0c0,0,0,0,0,0c0.02,0,0.04,0,0.06,0c2.05-0.09,4.03-0.29,5.92-0.62  c-0.58,0.51-1.39,0.89-2.41,1.15c-1,0.25-2.2,0.38-3.57,0.38c-1.37,0-2.57-0.13-3.57-0.38c-1.03-0.26-1.83-0.64-2.42-1.15  C45.91,65.57,47.89,65.78,49.94,65.86z M70.22,92.39v0.71c-0.92,0.84-5.19,3.77-20.23,4.05c-15.04-0.28-19.31-3.21-20.23-4.05v-0.71  c1.1-2.24,6.95-4.84,14.98-6.69c0.17,0.32,0.46,0.57,0.83,0.69c0.14,0.04,0.29,0.07,0.43,0.07c0.61,0,1.17-0.39,1.36-1  c0.14-0.43,0.25-0.83,0.35-1.2c1.43-5.51,0.83-11.26,0.19-14.74c0.66,0.07,1.36,0.1,2.09,0.1c0.74,0,1.43-0.04,2.09-0.1  c-0.64,3.47-1.24,9.22,0.19,14.74c0.1,0.39,0.21,0.78,0.35,1.2c0.19,0.61,0.75,1,1.36,1c0.14,0,0.29-0.02,0.43-0.07  c0.37-0.12,0.66-0.37,0.83-0.69C63.27,87.55,69.12,90.15,70.22,92.39z M58.16,61.88c-2.52,0.63-5.26,1.01-8.16,1.13  c-2.9-0.12-5.64-0.5-8.16-1.13c-15.48-3.84-20.27-16.21-21.74-22.93c9.35,6.66,28.6,6.25,29.9,6.21c0.23,0.01,1.35,0.03,3.09,0  c0,0,0,0,0,0c0,0,0,0,0,0c0.01,0,0.02,0,0.03,0C60.3,45,72.85,43.97,79.9,38.94C78.42,45.69,73.63,58.04,58.16,61.88z"/>
    </symbol>
  </defs>
</svg>