<svg xmlns="http://www.w3.org/2000/svg">
  <defs>
    <symbol id="icon-utensils" viewBox="0 0 512 640">
      <path d="M196.39,499.59a43,43,0,0,1-31.32-13.65,37.83,37.83,0,0,1-10.42-28.65l15.89-228.71c-1.36-2.66-6.56-6.43-11.2-9.79-13.39-9.69-33.63-24.34-33.63-56.08a8.4,8.4,0,0,1,.07-1L144.44,19.14a7.73,7.73,0,0,1,15.36.35l10.11,118.7c12.87,0,20.65,0,28.26.06,7,0,13.92,0,24.55.05L232.86,19.49a7.73,7.73,0,0,1,15.36-.35l18.66,142.57a8.39,8.39,0,0,1,.06,1c0,33.73-22.76,50.09-36.37,59.87-2.95,2.13-6.86,4.93-8.33,6.57l15.88,228.14A37.89,37.89,0,0,1,227.66,486,42.93,42.93,0,0,1,196.39,499.59ZM141.17,163.2c.2,23.51,14.56,33.9,27.23,43.07,8,5.8,15.57,11.28,17.49,19.6a7.87,7.87,0,0,1,.18,2.27l-16,230.22a22.52,22.52,0,0,0,6.31,17.05,27.29,27.29,0,0,0,40,0,22.61,22.61,0,0,0,6.34-17.07l-16-230.22a7.59,7.59,0,0,1,.17-2.28c1.46-6.31,7.3-10.51,14.7-15.83,12.56-9,29.72-21.36,29.93-46.83l-9.3-71.13-4.66,54.62a7.74,7.74,0,0,1-7.71,7.07c-14.9,0-23.19,0-31.69-.06-8.91,0-18-.06-35.31-.06a7.73,7.73,0,0,1-7.7-7.07l-4.63-54.45Z"/><path d="M182.24,153.73a7.73,7.73,0,0,1-7.73-7.73V20.14a7.73,7.73,0,1,1,15.46,0V146A7.73,7.73,0,0,1,182.24,153.73Z"/><path d="M210.39,153.73a7.73,7.73,0,0,1-7.73-7.73V20.14a7.73,7.73,0,1,1,15.45,0V146A7.73,7.73,0,0,1,210.39,153.73Z"/><path d="M368.61,324.47H326.5a42.28,42.28,0,0,1-30.33-12.71,36.07,36.07,0,0,1-10.42-26.43c1.34-38.26,6.3-103.69,15.83-162.16,15.14-92.78,31.81-107.34,43-110.21,9.85-2.53,19.13,3.38,27.58,17.57h0c8.95,15.06,14.09,29.24,14.09,38.89V307.37C386.29,316.8,378.36,324.47,368.61,324.47ZM348.79,27.89a1.22,1.22,0,0,0-.34,0c-1.67.43-16.78,6.82-31.61,97.73-9.42,57.76-14.32,122.4-15.65,160.21a20.8,20.8,0,0,0,6.1,15.16,26.77,26.77,0,0,0,19.21,8h42.11a2.06,2.06,0,0,0,2.22-1.64V69.43c0-5.05-3.12-16.19-11.91-31h0C353.93,30.07,350.37,27.89,348.79,27.89Z"/><path d="M347.53,499.59c-19.43,0-35.24-15.12-35.24-33.7V316.14a7.73,7.73,0,1,1,15.45,0V465.89c0,10.05,8.88,18.24,19.79,18.24s19.78-8.19,19.78-18.24V314.49a7.73,7.73,0,1,1,15.46,0v151.4C382.77,484.47,367,499.59,347.53,499.59Z"/><path d="M348,276.33a7.73,7.73,0,0,1-7.72-7.73V153.91a7.73,7.73,0,0,1,15.45,0V268.6A7.73,7.73,0,0,1,348,276.33Z"/>
    </symbol>
    <symbol id="icon-coffee" viewBox="0 0 512 640">
      <path d="M293.77,443.51H69.29A56.93,56.93,0,0,1,12.4,386.66V53.11A20.24,20.24,0,0,1,32.63,32.89H330.4a20.26,20.26,0,0,1,20.26,20.22V386.66A56.93,56.93,0,0,1,293.77,443.51ZM32.63,48.37a4.8,4.8,0,0,0-4.74,4.74V386.66A41.43,41.43,0,0,0,69.29,428H293.77a41.43,41.43,0,0,0,41.4-41.37V53.11a4.82,4.82,0,0,0-4.77-4.74Z"/><path d="M342.78,397.91a7.74,7.74,0,0,1-4.94-13.71l17.34-14.34c13.58-11.2,27.8-21.56,41.55-31.58l8.24-6c13.43-9.88,28.81-21.61,41.12-35.85,33.42-38.8,38-92.3,38-144.33a66.81,66.81,0,0,0-66.74-66.72H342.91a7.74,7.74,0,0,1,0-15.48h74.46a82.31,82.31,0,0,1,82.23,82.2c0,55-5.06,111.81-41.79,154.45-13.37,15.46-29.56,27.83-43.68,38.21l-8.28,6.05c-14.19,10.33-27.6,20.1-40.81,31l-17.33,14.34A7.75,7.75,0,0,1,342.78,397.91Z"/><path d="M342.92,347.26a7.75,7.75,0,0,1-4.84-13.8c13.72-10.95,26.64-19.92,38-27.84C423.74,272.53,450,254.3,450,157.29a33.63,33.63,0,0,0-33.6-33.6H342.91a7.75,7.75,0,0,1,0-15.49h73.46a49.14,49.14,0,0,1,49.09,49.09c0,105.11-32,127.36-80.51,161-11.2,7.78-23.89,16.6-37.2,27.23A7.74,7.74,0,0,1,342.92,347.26Z"/><path d="M342.91,134.34H20.14a7.74,7.74,0,0,1,0-15.48H342.91a7.74,7.74,0,1,1,0,15.48Z"/><path d="M142.09,345.34c-22.07,0-39.35-28.17-39.35-64.14S120,217,142.09,217s39.34,28.19,39.34,64.17S164.15,345.34,142.09,345.34Zm0-112.83c-11.29,0-23.86,20-23.86,48.69s12.57,48.66,23.86,48.66,23.85-20,23.85-48.66S153.37,232.51,142.09,232.51Z"/><path d="M142.09,345.34a8.09,8.09,0,0,1-1.53-.15,7.75,7.75,0,0,1-6.07-9.12c3-14.78,5.8-41.78.76-51.23-9.29-17.4-1.66-57.13-.75-61.6a7.74,7.74,0,0,1,15.18,3.06c-3,14.8-5.81,41.8-.76,51.25,9.26,17.41,1.66,57.11.76,61.58A7.75,7.75,0,0,1,142.09,345.34Z"/><path d="M196.14,345.34c-15.15,0-29.79-3.16-41.22-8.91a7.74,7.74,0,1,1,7-13.83c9.31,4.68,21.48,7.26,34.26,7.26,28.69,0,48.69-12.56,48.69-23.83s-20-23.86-48.69-23.86a87,87,0,0,0-20.7,2.41,7.74,7.74,0,1,1-3.68-15,102.77,102.77,0,0,1,24.38-2.85c36,0,64.17,17.28,64.17,39.34S232.13,345.34,196.14,345.34Z"/><path d="M174.63,317.42c-1.77,0-3.62,0-5.54-.11a7.75,7.75,0,0,1,.62-15.48c14.44.58,20.48-1.41,22.8-2.64,17.42-9.29,57.12-1.65,61.59-.75A7.74,7.74,0,1,1,251,313.62c-14.79-3-41.78-5.81-51.25-.76C194,315.92,185.78,317.42,174.63,317.42Z"/><path d="M181.51,397.09A115.89,115.89,0,1,1,297.43,281.2,116,116,0,0,1,181.51,397.09Zm0-216.29A100.4,100.4,0,1,0,281.94,281.2,100.51,100.51,0,0,0,181.51,180.8Z"/><path d="M291.26,479.11H71.77c-6.87,0-12.26-6-12.26-13.62V435.74a7.75,7.75,0,0,1,15.49,0v27.89H288.06V435.74a7.74,7.74,0,0,1,15.48,0v29.75C303.54,473,298,479.11,291.26,479.11Z"/>
    </symbol>
    <symbol id="icon-beer" viewBox="0 0 512 640">
      <path d="M307.76,499.6H111.56a45.37,45.37,0,0,1-45.32-45.31V170.37a7.75,7.75,0,0,1,15.49,0V454.29a29.86,29.86,0,0,0,29.83,29.82h196.2a29.87,29.87,0,0,0,29.83-29.82V158.71a7.74,7.74,0,1,1,15.48,0V454.29A45.37,45.37,0,0,1,307.76,499.6Z"/><path d="M400,458.69H345.33a7.74,7.74,0,0,1-7.74-7.75V199.66a7.74,7.74,0,0,1,7.74-7.75H400a62.5,62.5,0,0,1,62.43,62.43V396.26A62.5,62.5,0,0,1,400,458.69ZM353.07,443.2H400A47,47,0,0,0,447,396.26V254.34A47,47,0,0,0,400,207.4H353.07Z"/><path d="M399,428.57H345.33a7.74,7.74,0,0,1,0-15.48H399a20.68,20.68,0,0,0,20.4-20.4V257.91a20.68,20.68,0,0,0-20.4-20.4H345.33a7.74,7.74,0,0,1,0-15.48H399a35.93,35.93,0,0,1,35.89,35.88V392.69A35.93,35.93,0,0,1,399,428.57Z"/><path d="M207.17,308.84c-15,0-30.13-9.84-30.13-28.64V208.09c-6.46-6.33-7.52-14.36-7.56-21.74-1.66.11-3.66.16-6.21.16-5.19,0-12.5-3.49-23.94-9.25l-1.06-.53V284.4a22.39,22.39,0,0,1-44.77,0V184.29c-24.56-1.77-43.94-20.42-43.94-43.09,0-12,5.59-23.39,15-31.47a40,40,0,0,1-8-24c0-14.8,8.22-28.34,21.74-36.26,3.31-21.1,23.19-37,47.29-37,15.26,0,29.18,6.38,38.1,17.08a51.41,51.41,0,0,1,25.5-6.65,50.41,50.41,0,0,1,33,12,50.39,50.39,0,0,1,35.27-14.07c18.13,0,34.41,9.19,42.48,23.43a54.19,54.19,0,0,1,7-.46c26.34,0,47.77,19.4,47.77,43.23a40.57,40.57,0,0,1-10.4,26.94A41.16,41.16,0,0,1,357,143.29c0,23.66-21.12,42.94-47.2,43.22-9,9.75-22.43,15.46-36.63,15.46a52.64,52.64,0,0,1-14.8-2.12c-4,7.71-9.76,15.37-21.11,18.53V280.2C237.3,299,222.14,308.84,207.17,308.84Zm-29.76-140.1a7.77,7.77,0,0,1,7.75,7.78c0,1.71-.06,3.39-.11,5-.28,9.7,0,13.65,4.2,16.61a7.73,7.73,0,0,1,3.28,6.33V280.2c0,12.78,13.14,13.15,14.64,13.15s14.64-.37,14.64-13.15V211.94a7.73,7.73,0,0,1,7-7.7c10.2-1,13.22-5.54,18.66-17.36a7.74,7.74,0,0,1,10.32-3.78,36.4,36.4,0,0,0,15.42,3.39c10.87,0,21-4.68,27-12.52a7.73,7.73,0,0,1,6.59-3c.83,0,1.65.07,2.49.07,17.8,0,32.29-12.45,32.29-27.74,0-8.81-5-17.19-13.29-22.42a7.74,7.74,0,0,1-.46-12.8c7.25-5.31,11.4-13,11.4-21.13,0-15.29-14.48-27.74-32.28-27.74a37.74,37.74,0,0,0-9.48,1.21,7.73,7.73,0,0,1-9.21-4.82C284,44,271.6,36.23,257.47,36.23c-11.78,0-22.65,5.55-28.36,14.48a7.74,7.74,0,0,1-12.74.45c-6-8-16.13-12.85-27.18-12.85a35,35,0,0,0-22.52,7.89A7.75,7.75,0,0,1,154.9,44c-5.31-9.76-16.81-16.06-29.31-16.06-17.49,0-31.66,11.76-32.27,26.77a7.74,7.74,0,0,1-4.44,6.69C78.49,66.23,72,75.55,72,85.69c0,7.32,3.32,14.24,9.35,19.5A7.74,7.74,0,0,1,80,117.82c-9.37,5.12-15,13.86-15,23.38,0,15.3,14.49,27.74,32.29,27.74,1.09,0,2.17,0,3.23-.14a7.75,7.75,0,0,1,8.43,7.71V284.4a6.92,6.92,0,0,0,13.8,0V165a7.75,7.75,0,0,1,6.64-7.67c3.55-.5,6.65,1,16.86,6.1,5,2.53,14.33,7.21,17.12,7.6,6.42,0,7.28-.33,9.33-1.09.64-.24,1.35-.5,2.2-.79A7.8,7.8,0,0,1,177.41,168.74Z"/><path d="M147.09,97.4a7.74,7.74,0,0,1-7.68-6.86c-.64-5.56-2.22-6.92-2.39-7.05h0l.33,0a7.74,7.74,0,0,1-1.84-15.37,15,15,0,0,1,10.92,3.1c4.62,3.54,7.43,9.45,8.36,17.59A7.74,7.74,0,0,1,148,97.35C147.68,97.38,147.38,97.4,147.09,97.4Zm-9.26-14h0Z"/><path d="M177.4,184.23a7.74,7.74,0,0,1-7.62-6.48c-4-24.34,13.79-37.75,23.78-41.44A7.74,7.74,0,0,1,199,150.82c-1.77.68-16.8,7.05-13.92,24.4a7.73,7.73,0,0,1-6.37,8.9A6.92,6.92,0,0,1,177.4,184.23Z"/><path d="M262.75,119.57a7.75,7.75,0,0,1-7.67-6.7c-1.69-12.48-21.22-13.73-21.42-13.74a7.74,7.74,0,0,1,.79-15.46c12.08.59,33.24,7,36,27.12a7.73,7.73,0,0,1-6.63,8.71A7.51,7.51,0,0,1,262.75,119.57Z"/><path d="M155.76,462a7.75,7.75,0,0,1-7.75-7.74V176.54a7.75,7.75,0,0,1,15.49,0V454.29A7.75,7.75,0,0,1,155.76,462Z"/><path d="M263.59,462a7.75,7.75,0,0,1-7.75-7.74V193.17a7.75,7.75,0,0,1,15.49,0V454.29A7.75,7.75,0,0,1,263.59,462Z"/><path d="M345.33,462H74a7.75,7.75,0,1,1,0-15.49H345.33a7.75,7.75,0,0,1,0,15.49Z"/>
    </symbol>
    <symbol id="icon-wine" viewBox="-5.0 -10.0 110.0 135.0">
      <path d="m36.254 51.402 9.2734 6.1836c0.12891 0.085937 3.1172 2.2109 3.4922 7.1719l-0.003906 23.242h-7.3672c-0.55078 0-1 0.44922-1 1s0.44922 1 1 1h16.734c0.55078 0 1-0.44922 1-1s-0.44922-1-1-1h-7.3672l-0.003906-23.207v-0.015625c0.36719-4.9766 3.3672-7.1016 3.4844-7.1875l9.2812-6.1875c5.1328-3.4219 7.3477-9.8984 5.4023-15.688l-6.6211-24.973c-0.11328-0.4375-0.51172-0.74219-0.96484-0.74219h-23.152c-0.45312 0-0.85156 0.30469-0.96875 0.74219l-6.6016 24.91c-1.9648 5.8516 0.24609 12.328 5.3828 15.75zm2.957-39.402h21.617l3.8203 14.402c-6.4375-0.17578-9.7734-1.7969-13.289-3.5117-3.5469-1.7305-7.2109-3.5117-14.051-3.7109zm-6.4258 24.227 3.9922-15.059c6.707 0.11719 10.113 1.7656 13.703 3.5156 3.6562 1.7812 7.4453 3.6172 14.699 3.7227l2.0898 7.8789c1.6797 4.9961-0.21094 10.527-4.5977 13.449l-9.2891 6.1914c-0.11719 0.078125-2.0977 1.4492-3.3633 4.4688-1.2656-3.0117-3.2578-4.3945-3.3789-4.4727l-9.2812-6.1875c-4.3828-2.918-6.2734-8.4492-4.5742-13.508z"/>
    </symbol>
  </defs>
</svg>