<svg xmlns="http://www.w3.org/2000/svg" data-name="Layer 1" viewBox="0 0 512 640" x="0px" y="0px"><title>304-Beer mug</title><path d="M307.76,499.6H111.56a45.37,45.37,0,0,1-45.32-45.31V170.37a7.75,7.75,0,0,1,15.49,0V454.29a29.86,29.86,0,0,0,29.83,29.82h196.2a29.87,29.87,0,0,0,29.83-29.82V158.71a7.74,7.74,0,1,1,15.48,0V454.29A45.37,45.37,0,0,1,307.76,499.6Z"/><path d="M400,458.69H345.33a7.74,7.74,0,0,1-7.74-7.75V199.66a7.74,7.74,0,0,1,7.74-7.75H400a62.5,62.5,0,0,1,62.43,62.43V396.26A62.5,62.5,0,0,1,400,458.69ZM353.07,443.2H400A47,47,0,0,0,447,396.26V254.34A47,47,0,0,0,400,207.4H353.07Z"/><path d="M399,428.57H345.33a7.74,7.74,0,0,1,0-15.48H399a20.68,20.68,0,0,0,20.4-20.4V257.91a20.68,20.68,0,0,0-20.4-20.4H345.33a7.74,7.74,0,0,1,0-15.48H399a35.93,35.93,0,0,1,35.89,35.88V392.69A35.93,35.93,0,0,1,399,428.57Z"/><path d="M207.17,308.84c-15,0-30.13-9.84-30.13-28.64V208.09c-6.46-6.33-7.52-14.36-7.56-21.74-1.66.11-3.66.16-6.21.16-5.19,0-12.5-3.49-23.94-9.25l-1.06-.53V284.4a22.39,22.39,0,0,1-44.77,0V184.29c-24.56-1.77-43.94-20.42-43.94-43.09,0-12,5.59-23.39,15-31.47a40,40,0,0,1-8-24c0-14.8,8.22-28.34,21.74-36.26,3.31-21.1,23.19-37,47.29-37,15.26,0,29.18,6.38,38.1,17.08a51.41,51.41,0,0,1,25.5-6.65,50.41,50.41,0,0,1,33,12,50.39,50.39,0,0,1,35.27-14.07c18.13,0,34.41,9.19,42.48,23.43a54.19,54.19,0,0,1,7-.46c26.34,0,47.77,19.4,47.77,43.23a40.57,40.57,0,0,1-10.4,26.94A41.16,41.16,0,0,1,357,143.29c0,23.66-21.12,42.94-47.2,43.22-9,9.75-22.43,15.46-36.63,15.46a52.64,52.64,0,0,1-14.8-2.12c-4,7.71-9.76,15.37-21.11,18.53V280.2C237.3,299,222.14,308.84,207.17,308.84Zm-29.76-140.1a7.77,7.77,0,0,1,7.75,7.78c0,1.71-.06,3.39-.11,5-.28,9.7,0,13.65,4.2,16.61a7.73,7.73,0,0,1,3.28,6.33V280.2c0,12.78,13.14,13.15,14.64,13.15s14.64-.37,14.64-13.15V211.94a7.73,7.73,0,0,1,7-7.7c10.2-1,13.22-5.54,18.66-17.36a7.74,7.74,0,0,1,10.32-3.78,36.4,36.4,0,0,0,15.42,3.39c10.87,0,21-4.68,27-12.52a7.73,7.73,0,0,1,6.59-3c.83,0,1.65.07,2.49.07,17.8,0,32.29-12.45,32.29-27.74,0-8.81-5-17.19-13.29-22.42a7.74,7.74,0,0,1-.46-12.8c7.25-5.31,11.4-13,11.4-21.13,0-15.29-14.48-27.74-32.28-27.74a37.74,37.74,0,0,0-9.48,1.21,7.73,7.73,0,0,1-9.21-4.82C284,44,271.6,36.23,257.47,36.23c-11.78,0-22.65,5.55-28.36,14.48a7.74,7.74,0,0,1-12.74.45c-6-8-16.13-12.85-27.18-12.85a35,35,0,0,0-22.52,7.89A7.75,7.75,0,0,1,154.9,44c-5.31-9.76-16.81-16.06-29.31-16.06-17.49,0-31.66,11.76-32.27,26.77a7.74,7.74,0,0,1-4.44,6.69C78.49,66.23,72,75.55,72,85.69c0,7.32,3.32,14.24,9.35,19.5A7.74,7.74,0,0,1,80,117.82c-9.37,5.12-15,13.86-15,23.38,0,15.3,14.49,27.74,32.29,27.74,1.09,0,2.17,0,3.23-.14a7.75,7.75,0,0,1,8.43,7.71V284.4a6.92,6.92,0,0,0,13.8,0V165a7.75,7.75,0,0,1,6.64-7.67c3.55-.5,6.65,1,16.86,6.1,5,2.53,14.33,7.21,17.12,7.6,6.42,0,7.28-.33,9.33-1.09.64-.24,1.35-.5,2.2-.79A7.8,7.8,0,0,1,177.41,168.74Z"/><path d="M147.09,97.4a7.74,7.74,0,0,1-7.68-6.86c-.64-5.56-2.22-6.92-2.39-7.05h0l.33,0a7.74,7.74,0,0,1-1.84-15.37,15,15,0,0,1,10.92,3.1c4.62,3.54,7.43,9.45,8.36,17.59A7.74,7.74,0,0,1,148,97.35C147.68,97.38,147.38,97.4,147.09,97.4Zm-9.26-14h0Z"/><path d="M177.4,184.23a7.74,7.74,0,0,1-7.62-6.48c-4-24.34,13.79-37.75,23.78-41.44A7.74,7.74,0,0,1,199,150.82c-1.77.68-16.8,7.05-13.92,24.4a7.73,7.73,0,0,1-6.37,8.9A6.92,6.92,0,0,1,177.4,184.23Z"/><path d="M262.75,119.57a7.75,7.75,0,0,1-7.67-6.7c-1.69-12.48-21.22-13.73-21.42-13.74a7.74,7.74,0,0,1,.79-15.46c12.08.59,33.24,7,36,27.12a7.73,7.73,0,0,1-6.63,8.71A7.51,7.51,0,0,1,262.75,119.57Z"/><path d="M155.76,462a7.75,7.75,0,0,1-7.75-7.74V176.54a7.75,7.75,0,0,1,15.49,0V454.29A7.75,7.75,0,0,1,155.76,462Z"/><path d="M263.59,462a7.75,7.75,0,0,1-7.75-7.74V193.17a7.75,7.75,0,0,1,15.49,0V454.29A7.75,7.75,0,0,1,263.59,462Z"/><path d="M345.33,462H74a7.75,7.75,0,1,1,0-15.49H345.33a7.75,7.75,0,0,1,0,15.49Z"/><text x="0" y="527" fill="#000000" font-size="5px" font-weight="bold" font-family="'Helvetica Neue', Helvetica, Arial-Unicode, Arial, Sans-serif">Created by perilous graphic</text><text x="0" y="532" fill="#000000" font-size="5px" font-weight="bold" font-family="'Helvetica Neue', Helvetica, Arial-Unicode, Arial, Sans-serif">from the Noun Project</text></svg>