<svg xmlns="http://www.w3.org/2000/svg" xmlns:xlink="http://www.w3.org/1999/xlink" version="1.1" x="0px" y="0px" viewBox="0 0 100 125" style="enable-background:new 0 0 100 100;" xml:space="preserve"><g><path d="M48.88,18.17l-17.07-6.32c-0.96-0.36-2.04,0.09-2.46,1.03L14,46.96c-1.55,3.44-1.6,7.4-0.15,10.88   c1.2,2.87,3.36,5.24,6.07,6.72L12.5,84.62l-5.09-1.89c-1.01-0.37-2.13,0.14-2.51,1.15c-0.37,1.01,0.14,2.13,1.15,2.51l6.92,2.56   c0,0,0,0,0,0c0,0,0,0,0,0l6.92,2.56c0.22,0.08,0.45,0.12,0.68,0.12c0.79,0,1.54-0.49,1.83-1.27c0.37-1.01-0.14-2.13-1.15-2.51   l-5.09-1.89l7.43-20.07c0.94,0.2,1.9,0.3,2.85,0.3c2.11,0,4.22-0.49,6.13-1.45c3.37-1.69,5.91-4.74,6.97-8.35l10.53-35.86   C50.37,19.57,49.85,18.53,48.88,18.17z M35.8,55.31c-0.77,2.62-2.54,4.74-4.98,5.96c-2.44,1.23-5.2,1.38-7.76,0.43   c-2.56-0.95-4.55-2.86-5.61-5.38c-1.05-2.52-1.02-5.28,0.11-7.77l14.61-32.41l13.65,5.05L35.8,55.31z"/><path d="M95.12,92.7c-0.35-1.02-1.45-1.57-2.47-1.22l-5.15,1.74l-6.85-20.27c2.75-1.4,4.98-3.7,6.26-6.54   c1.55-3.43,1.62-7.4,0.17-10.88l-14.37-34.5c-0.39-0.95-1.45-1.43-2.43-1.1l-17.24,5.82c-0.97,0.33-1.52,1.35-1.26,2.34l9.5,36.15   c0.96,3.65,3.41,6.76,6.73,8.55c2,1.08,4.24,1.63,6.48,1.63c0.82,0,1.65-0.08,2.47-0.23l6.85,20.27l-5.15,1.74   c-1.02,0.34-1.57,1.45-1.22,2.47c0.28,0.81,1.03,1.33,1.85,1.33c0.21,0,0.42-0.03,0.62-0.1l13.99-4.73   C94.92,94.83,95.47,93.72,95.12,92.7z M69.86,69.35c-2.4-1.29-4.11-3.46-4.81-6.1l-9.03-34.39l13.79-4.66l13.67,32.82   c1.05,2.52,1.01,5.28-0.12,7.77c-1.13,2.49-3.17,4.34-5.76,5.21c0,0,0,0,0,0C75.01,70.88,72.26,70.64,69.86,69.35z"/><path d="M51.66,11.8l-3.12-7.42c-0.42-0.99-1.56-1.46-2.56-1.04c-0.99,0.42-1.46,1.56-1.04,2.56l3.12,7.42   c0.31,0.75,1.04,1.19,1.8,1.19c0.25,0,0.51-0.05,0.76-0.15C51.61,13.94,52.08,12.8,51.66,11.8z"/><path d="M58.48,19.63c0.39,0.48,0.95,0.73,1.52,0.73c0.43,0,0.86-0.14,1.22-0.43l6.27-5.05c0.84-0.68,0.97-1.91,0.3-2.74   c-0.68-0.84-1.91-0.97-2.74-0.3l-6.27,5.05C57.94,17.56,57.8,18.79,58.48,19.63z"/><path d="M56.39,11.34c0.22,0.08,0.45,0.12,0.67,0.12c0.8,0,1.54-0.49,1.83-1.28l2.77-7.56c0.37-1.01-0.15-2.13-1.16-2.5   C59.5-0.25,58.37,0.27,58,1.28l-2.77,7.56C54.86,9.85,55.38,10.97,56.39,11.34z"/></g><text x="0" y="115" fill="#000000" font-size="5px" font-weight="bold" font-family="'Helvetica Neue', Helvetica, Arial-Unicode, Arial, Sans-serif">Created by ABDUL LATIF</text><text x="0" y="120" fill="#000000" font-size="5px" font-weight="bold" font-family="'Helvetica Neue', Helvetica, Arial-Unicode, Arial, Sans-serif">from the Noun Project</text></svg>