<svg xmlns="http://www.w3.org/2000/svg" data-name="Layer 1" viewBox="0 0 512 640" x="0px" y="0px"><title>303-Coffee cup</title><path d="M293.77,443.51H69.29A56.93,56.93,0,0,1,12.4,386.66V53.11A20.24,20.24,0,0,1,32.63,32.89H330.4a20.26,20.26,0,0,1,20.26,20.22V386.66A56.93,56.93,0,0,1,293.77,443.51ZM32.63,48.37a4.8,4.8,0,0,0-4.74,4.74V386.66A41.43,41.43,0,0,0,69.29,428H293.77a41.43,41.43,0,0,0,41.4-41.37V53.11a4.82,4.82,0,0,0-4.77-4.74Z"/><path d="M342.78,397.91a7.74,7.74,0,0,1-4.94-13.71l17.34-14.34c13.58-11.2,27.8-21.56,41.55-31.58l8.24-6c13.43-9.88,28.81-21.61,41.12-35.85,33.42-38.8,38-92.3,38-144.33a66.81,66.81,0,0,0-66.74-66.72H342.91a7.74,7.74,0,0,1,0-15.48h74.46a82.31,82.31,0,0,1,82.23,82.2c0,55-5.06,111.81-41.79,154.45-13.37,15.46-29.56,27.83-43.68,38.21l-8.28,6.05c-14.19,10.33-27.6,20.1-40.81,31l-17.33,14.34A7.75,7.75,0,0,1,342.78,397.91Z"/><path d="M342.92,347.26a7.75,7.75,0,0,1-4.84-13.8c13.72-10.95,26.64-19.92,38-27.84C423.74,272.53,450,254.3,450,157.29a33.63,33.63,0,0,0-33.6-33.6H342.91a7.75,7.75,0,0,1,0-15.49h73.46a49.14,49.14,0,0,1,49.09,49.09c0,105.11-32,127.36-80.51,161-11.2,7.78-23.89,16.6-37.2,27.23A7.74,7.74,0,0,1,342.92,347.26Z"/><path d="M342.91,134.34H20.14a7.74,7.74,0,0,1,0-15.48H342.91a7.74,7.74,0,1,1,0,15.48Z"/><path d="M142.09,345.34c-22.07,0-39.35-28.17-39.35-64.14S120,217,142.09,217s39.34,28.19,39.34,64.17S164.15,345.34,142.09,345.34Zm0-112.83c-11.29,0-23.86,20-23.86,48.69s12.57,48.66,23.86,48.66,23.85-20,23.85-48.66S153.37,232.51,142.09,232.51Z"/><path d="M142.09,345.34a8.09,8.09,0,0,1-1.53-.15,7.75,7.75,0,0,1-6.07-9.12c3-14.78,5.8-41.78.76-51.23-9.29-17.4-1.66-57.13-.75-61.6a7.74,7.74,0,0,1,15.18,3.06c-3,14.8-5.81,41.8-.76,51.25,9.26,17.41,1.66,57.11.76,61.58A7.75,7.75,0,0,1,142.09,345.34Z"/><path d="M196.14,345.34c-15.15,0-29.79-3.16-41.22-8.91a7.74,7.74,0,1,1,7-13.83c9.31,4.68,21.48,7.26,34.26,7.26,28.69,0,48.69-12.56,48.69-23.83s-20-23.86-48.69-23.86a87,87,0,0,0-20.7,2.41,7.74,7.74,0,1,1-3.68-15,102.77,102.77,0,0,1,24.38-2.85c36,0,64.17,17.28,64.17,39.34S232.13,345.34,196.14,345.34Z"/><path d="M174.63,317.42c-1.77,0-3.62,0-5.54-.11a7.75,7.75,0,0,1,.62-15.48c14.44.58,20.48-1.41,22.8-2.64,17.42-9.29,57.12-1.65,61.59-.75A7.74,7.74,0,1,1,251,313.62c-14.79-3-41.78-5.81-51.25-.76C194,315.92,185.78,317.42,174.63,317.42Z"/><path d="M181.51,397.09A115.89,115.89,0,1,1,297.43,281.2,116,116,0,0,1,181.51,397.09Zm0-216.29A100.4,100.4,0,1,0,281.94,281.2,100.51,100.51,0,0,0,181.51,180.8Z"/><path d="M291.26,479.11H71.77c-6.87,0-12.26-6-12.26-13.62V435.74a7.75,7.75,0,0,1,15.49,0v27.89H288.06V435.74a7.74,7.74,0,0,1,15.48,0v29.75C303.54,473,298,479.11,291.26,479.11Z"/><text x="0" y="527" fill="#000000" font-size="5px" font-weight="bold" font-family="'Helvetica Neue', Helvetica, Arial-Unicode, Arial, Sans-serif">Created by perilous graphic</text><text x="0" y="532" fill="#000000" font-size="5px" font-weight="bold" font-family="'Helvetica Neue', Helvetica, Arial-Unicode, Arial, Sans-serif">from the Noun Project</text></svg>