<svg xmlns="http://www.w3.org/2000/svg" xmlns:xlink="http://www.w3.org/1999/xlink" version="1.1" x="0px" y="0px" viewBox="0 0 100 125" style="enable-background:new 0 0 100 100;" xml:space="preserve"><style type="text/css">
	.st0{fill-rule:evenodd;clip-rule:evenodd;}
</style><g><g><path class="st0" d="M37.07,47.67c3.44,1.14,7.59,1.8,12.07,1.8c7.06,0,13.32-1.65,17.24-4.2c-3.92-2.55-10.18-4.2-17.24-4.2    c-7.06,0-13.32,1.65-17.24,4.2c-0.27,10.5,2.98,21.61,9.06,29.07C37.99,64.71,36.41,55.68,37.07,47.67z"/><path class="st0" d="M78.84,68.4c-1.51-1.25-3.39-2.4-5.55-3.41c2.54-1.17,4.9-2.48,6.73-3.94c3.85-3.09,5.48-6.78,2.21-11.16    c-0.56-0.74-1.2-1.3-1.91-1.68c-1.05-0.55-2.19-0.7-3.39-0.46c-1.1,0.21-2.22,0.75-3.33,1.57c-0.65,0.48-1.29,1.08-1.92,1.76    c0.12-1.37,0.18-2.77,0.18-4.19l-0.01-0.12c-0.31-3.52-2.9-6.32-7.05-8.22c-3.99-1.82-9.48-2.83-15.76-2.83    c-6.16,0-11.6,0.64-15.67,2.24c-4.37,1.72-7.19,4.52-7.73,8.75l-0.02,0.17c0,5.95,1.06,11.53,2.9,16.39    c-4.05,1.35-7.44,3.1-9.88,5.13c-2.8,2.33-4.39,5.05-4.39,7.99c0,4.66,4.02,8.78,10.52,11.67c6.16,2.74,14.64,4.44,23.97,4.44    c9.33,0,17.81-1.7,23.97-4.44c6.5-2.89,10.52-7.01,10.52-11.67C83.23,73.45,81.65,70.73,78.84,68.4z M70.78,57.15    c1.38-2.56,2.94-4.48,4.47-5.62c0.77-0.58,1.52-0.94,2.19-1.07c0.58-0.11,1.12-0.05,1.59,0.19c0.35,0.18,0.68,0.48,0.99,0.89    c2.09,2.8,0.92,5.26-1.73,7.37c-2.18,1.75-5.31,3.29-8.58,4.63c-0.25-0.09-0.5-0.18-0.76-0.26c0.11-0.29,0.22-0.58,0.32-0.88    c0.02-0.07,0.05-0.13,0.08-0.2c0.02-0.06,0.04-0.12,0.06-0.18c0.25-0.74,0.49-1.49,0.71-2.26c0.01-0.04,0.02-0.08,0.03-0.12    c0.21-0.75,0.4-1.52,0.57-2.3C70.75,57.27,70.77,57.21,70.78,57.15z M34.37,40.53c3.72-1.46,8.83-2.05,14.67-2.05    c5.9,0,11,0.91,14.62,2.57c3.21,1.46,5.2,3.48,5.44,5.9c0,3.33-0.36,6.53-1,9.53c-0.17,0.78-0.36,1.54-0.56,2.29    c-0.02,0.06-0.03,0.12-0.05,0.18c-0.21,0.73-0.43,1.45-0.67,2.15c-0.04,0.11-0.08,0.22-0.11,0.33c-0.25,0.7-0.51,1.4-0.8,2.07    c-0.03,0.06-0.05,0.12-0.08,0.18c-0.28,0.65-0.58,1.29-0.89,1.91c-0.44,0.88-0.91,1.73-1.41,2.54c-0.06,0.09-0.12,0.18-0.18,0.27    c-0.22,0.35-0.45,0.69-0.68,1.02c-0.07,0.1-0.14,0.2-0.21,0.3c-0.27,0.37-0.54,0.74-0.82,1.09c-0.02,0.03-0.04,0.06-0.07,0.09    c-0.3,0.37-0.61,0.73-0.93,1.08c-0.09,0.1-0.18,0.19-0.27,0.29c-0.23,0.25-0.47,0.48-0.7,0.72c-0.11,0.11-0.22,0.21-0.33,0.32    c-0.26,0.24-0.52,0.47-0.78,0.69c-0.08,0.07-0.16,0.14-0.24,0.2c-0.31,0.25-0.62,0.49-0.94,0.72c-0.14,0.1-0.29,0.2-0.43,0.3    c-0.19,0.13-0.39,0.26-0.58,0.38c-0.16,0.1-0.32,0.19-0.48,0.28c-0.2,0.11-0.4,0.22-0.6,0.32c-0.15,0.08-0.31,0.16-0.46,0.24    c-0.26,0.12-0.52,0.24-0.78,0.34c-0.12,0.05-0.24,0.1-0.36,0.15c-0.33,0.13-0.67,0.24-1.01,0.34c-0.13,0.04-0.27,0.07-0.4,0.11    c-0.25,0.07-0.5,0.13-0.75,0.18c-0.14,0.03-0.28,0.06-0.43,0.08c-0.26,0.05-0.53,0.08-0.79,0.11c-0.13,0.01-0.25,0.03-0.38,0.04    c-0.39,0.03-0.78,0.06-1.18,0.06c-0.4,0-0.79-0.02-1.18-0.06c-0.13-0.01-0.25-0.03-0.38-0.04c-0.27-0.03-0.53-0.07-0.79-0.11    c-0.14-0.03-0.29-0.05-0.43-0.08c-0.25-0.05-0.5-0.11-0.75-0.18c-0.14-0.04-0.27-0.07-0.41-0.11c-0.33-0.1-0.67-0.21-0.99-0.34    c-0.13-0.05-0.26-0.11-0.39-0.16c-0.26-0.11-0.51-0.21-0.76-0.34c-0.16-0.08-0.32-0.16-0.47-0.24c-0.2-0.1-0.39-0.21-0.58-0.32    c-0.16-0.09-0.33-0.19-0.49-0.29c-0.19-0.12-0.38-0.24-0.57-0.37c-0.15-0.1-0.3-0.2-0.45-0.31c-0.31-0.22-0.62-0.46-0.92-0.7    c-0.09-0.07-0.18-0.15-0.27-0.23c-0.26-0.22-0.52-0.44-0.77-0.68c-0.11-0.11-0.23-0.22-0.34-0.33c-0.23-0.23-0.47-0.46-0.69-0.71    c-0.09-0.1-0.19-0.19-0.28-0.29c-0.31-0.35-0.62-0.7-0.93-1.08c-0.02-0.03-0.05-0.06-0.07-0.09c-0.28-0.35-0.55-0.71-0.82-1.08    c-0.07-0.1-0.14-0.2-0.22-0.31c-0.23-0.33-0.46-0.67-0.68-1.02c-0.06-0.09-0.12-0.18-0.18-0.28c-0.55-0.89-1.07-1.83-1.56-2.82    c-0.04-0.09-0.09-0.18-0.13-0.27c-0.2-0.42-0.39-0.84-0.58-1.27c-2.09-4.85-3.31-10.62-3.31-16.83    C28.82,43.91,31,41.85,34.37,40.53z M71.6,85.55c-5.82,2.59-13.9,4.19-22.85,4.19c-8.95,0-17.03-1.6-22.85-4.19    c-5.49-2.44-8.88-5.69-8.88-9.16c0-2.07,1.23-4.08,3.39-5.88c2.21-1.84,5.36-3.44,9.19-4.69c0.05,0.1,0.1,0.2,0.15,0.3    c0.17,0.36,0.35,0.72,0.53,1.07c0.08,0.16,0.17,0.32,0.25,0.47c0.18,0.33,0.36,0.66,0.54,0.98c0.08,0.15,0.17,0.29,0.25,0.44    c0.21,0.36,0.43,0.71,0.66,1.05c0.06,0.09,0.12,0.18,0.18,0.27c0.03,0.04,0.05,0.08,0.08,0.12c0.18,0.26,0.36,0.52,0.55,0.78    c-2.36,1.34-3.77,2.97-3.77,4.75c0,4.47,8.84,8.1,19.74,8.1c10.9,0,19.74-3.63,19.74-8.1c0-1.78-1.41-3.42-3.77-4.75    c0.18-0.26,0.37-0.51,0.55-0.78c0.03-0.04,0.05-0.08,0.08-0.12c0.06-0.09,0.11-0.18,0.17-0.27c0.23-0.35,0.45-0.7,0.66-1.06    c0.09-0.14,0.17-0.29,0.25-0.43c0.19-0.32,0.37-0.65,0.54-0.98c0.03-0.05,0.06-0.1,0.08-0.15c0.9-0.33,1.81-0.67,2.72-1.03    c2.98,1.14,5.48,2.5,7.31,4.03c2.16,1.8,3.39,3.8,3.39,5.88C80.48,79.86,77.08,83.11,71.6,85.55z"/><path class="st0" d="M42.1,27.51c-0.45-9.22,19.18-9.03,8.57-19.91C50.8,20.24,31.88,18,42.1,27.51z"/><path class="st0" d="M49.55,34.71c-0.52-10.46,21.77-10.25,9.72-22.59C59.42,26.45,37.96,23.91,49.55,34.71z"/></g></g><text x="0" y="115" fill="#000000" font-size="5px" font-weight="bold" font-family="'Helvetica Neue', Helvetica, Arial-Unicode, Arial, Sans-serif">Created by ABDUL LATIF</text><text x="0" y="120" fill="#000000" font-size="5px" font-weight="bold" font-family="'Helvetica Neue', Helvetica, Arial-Unicode, Arial, Sans-serif">from the Noun Project</text></svg>