<svg xmlns="http://www.w3.org/2000/svg" xmlns:xlink="http://www.w3.org/1999/xlink" version="1.1" x="0px" y="0px" viewBox="0 0 100 125" style="enable-background:new 0 0 100 100;" xml:space="preserve"><path d="M82.12,35.42c0.17-1.03,0.26-2.07,0.26-3.12c0-9.09-6.28-16.86-15.06-18.8C64.82,5.51,57.39,0,48.94,0  C38.87,0,30.62,7.64,29.76,17.56c-6.99,3.02-11.63,10.01-11.63,17.68c0,0.03,0,0.05,0,0.08c-0.03,0.01-0.06,0.02-0.09,0.04  c-0.82,0.45-1.26,1.33-1.11,2.26c1.06,6.48,5.44,21.9,23.32,26.79c0.41,1.53,1.55,3.47,4.62,4.49c0.61,2.83,1.45,8.39,0.28,13.79  c-6.43,1.39-16.46,4.27-18.15,8.93c-0.06,0.16-0.09,0.32-0.09,0.49v1.52c0,0.24,0.06,0.47,0.17,0.68c0.48,0.89,3.83,5.35,22.88,5.7  c0.01,0,0.02,0,0.03,0c0,0,0,0,0,0c0,0,0,0,0,0c0,0,0,0,0,0c0,0,0,0,0,0c0.01,0,0.02,0,0.03,0c19.05-0.35,22.4-4.81,22.88-5.7  c0.11-0.21,0.17-0.44,0.17-0.68v-1.52c0-0.17-0.03-0.33-0.09-0.49c-1.69-4.65-11.72-7.53-18.15-8.93  c-1.18-5.4-0.33-10.96,0.28-13.79c3.06-1.03,4.21-2.97,4.62-4.49c17.92-4.91,22.28-20.37,23.33-26.86  C83.2,36.7,82.83,35.89,82.12,35.42z M79.53,32.3c0,1.22-0.14,2.44-0.41,3.63c-5.57,4.76-17.17,5.99-23.78,6.29  c0.86-2.21,1.31-4.59,1.31-6.98c0-5.23-2.11-10.18-5.83-13.79c3.12-3.54,7.53-5.56,12.3-5.56c0.95,0,1.9,0.08,2.82,0.24  C73.82,17.5,79.53,24.3,79.53,32.3z M48.94,2.85c6.74,0,12.72,4.11,15.2,10.21c-0.34-0.02-0.68-0.03-1.01-0.03  c-5.63,0-10.83,2.38-14.49,6.57c-3.26-2.35-7.2-3.63-11.25-3.63c-1.57,0-3.12,0.19-4.63,0.57C34.05,8.72,40.8,2.85,48.94,2.85z   M31.63,19.88c1.84-0.69,3.78-1.04,5.77-1.04c3.86,0,7.61,1.37,10.55,3.85c3.72,3.13,5.85,7.71,5.85,12.56  c0,2.45-0.55,4.87-1.6,7.07c-1.34,0.01-2.15-0.01-2.16-0.01c-0.01,0-0.03,0-0.04,0c-0.01,0-0.03,0-0.04,0  c-0.21,0.01-20.72,0.54-28.94-6.25c-0.01-0.27-0.02-0.53-0.02-0.81C20.99,28.44,25.26,22.27,31.63,19.88z M49.94,65.86  c0.02,0,0.04,0,0.06,0c0,0,0,0,0,0c0,0,0,0,0,0c0,0,0,0,0,0c0,0,0,0,0,0c0.02,0,0.04,0,0.06,0c2.05-0.09,4.03-0.29,5.92-0.62  c-0.58,0.51-1.39,0.89-2.41,1.15c-1,0.25-2.2,0.38-3.57,0.38c-1.37,0-2.57-0.13-3.57-0.38c-1.03-0.26-1.83-0.64-2.42-1.15  C45.91,65.57,47.89,65.78,49.94,65.86z M70.22,92.39v0.71c-0.92,0.84-5.19,3.77-20.23,4.05c-15.04-0.28-19.31-3.21-20.23-4.05v-0.71  c1.1-2.24,6.95-4.84,14.98-6.69c0.17,0.32,0.46,0.57,0.83,0.69c0.14,0.04,0.29,0.07,0.43,0.07c0.61,0,1.17-0.39,1.36-1  c0.14-0.43,0.25-0.83,0.35-1.2c1.43-5.51,0.83-11.26,0.19-14.74c0.66,0.07,1.36,0.1,2.09,0.1c0.74,0,1.43-0.04,2.09-0.1  c-0.64,3.47-1.24,9.22,0.19,14.74c0.1,0.39,0.21,0.78,0.35,1.2c0.19,0.61,0.75,1,1.36,1c0.14,0,0.29-0.02,0.43-0.07  c0.37-0.12,0.66-0.37,0.83-0.69C63.27,87.55,69.12,90.15,70.22,92.39z M58.16,61.88c-2.52,0.63-5.26,1.01-8.16,1.13  c-2.9-0.12-5.64-0.5-8.16-1.13c-15.48-3.84-20.27-16.21-21.74-22.93c9.35,6.66,28.6,6.25,29.9,6.21c0.23,0.01,1.35,0.03,3.09,0  c0,0,0,0,0,0c0,0,0,0,0,0c0.01,0,0.02,0,0.03,0C60.3,45,72.85,43.97,79.9,38.94C78.42,45.69,73.63,58.04,58.16,61.88z"/><text x="0" y="115" fill="#000000" font-size="5px" font-weight="bold" font-family="'Helvetica Neue', Helvetica, Arial-Unicode, Arial, Sans-serif">Created by ABDUL LATIF</text><text x="0" y="120" fill="#000000" font-size="5px" font-weight="bold" font-family="'Helvetica Neue', Helvetica, Arial-Unicode, Arial, Sans-serif">from the Noun Project</text></svg>