<svg xmlns="http://www.w3.org/2000/svg" xmlns:xlink="http://www.w3.org/1999/xlink" version="1.1" x="0px" y="0px" viewBox="0 0 100 125" style="enable-background:new 0 0 100 100;" xml:space="preserve"><g><path d="M89.86,6.01h-4.72V1.33c0-0.72-0.58-1.3-1.3-1.3H15.16c-0.72,0-1.3,0.58-1.3,1.3V9.7h-3.71c-0.72,0-1.3,0.58-1.3,1.3   s0.58,1.3,1.3,1.3h3.71v15.58h-3.71c-0.72,0-1.3,0.58-1.3,1.3c0,0.72,0.58,1.3,1.3,1.3h3.71v15.58h-3.71c-0.72,0-1.3,0.58-1.3,1.3   c0,0.72,0.58,1.3,1.3,1.3h3.71v15.58h-3.71c-0.72,0-1.3,0.58-1.3,1.3c0,0.72,0.58,1.3,1.3,1.3h3.71v15.58h-3.71   c-0.72,0-1.3,0.58-1.3,1.3c0,0.72,0.58,1.3,1.3,1.3h3.71v7.64c0,0.72,0.58,1.3,1.3,1.3h4.72v4.68c0,0.72,0.58,1.3,1.3,1.3h68.68   c0.72,0,1.3-0.58,1.3-1.3V7.31C91.16,6.59,90.58,6.01,89.86,6.01z M16.46,85.05h2.8c0.72,0,1.3-0.58,1.3-1.3   c0-0.72-0.58-1.3-1.3-1.3h-2.8V66.87h2.8c0.72,0,1.3-0.58,1.3-1.3c0-0.72-0.58-1.3-1.3-1.3h-2.8V48.68h2.8c0.72,0,1.3-0.58,1.3-1.3   c0-0.72-0.58-1.3-1.3-1.3h-2.8V30.49h2.8c0.72,0,1.3-0.58,1.3-1.3c0-0.72-0.58-1.3-1.3-1.3h-2.8V12.31h2.8c0.72,0,1.3-0.58,1.3-1.3   s-0.58-1.3-1.3-1.3h-2.8V2.64h66.08v88.75H16.46V85.05z M88.56,97.36H22.48v-3.37h61.36c0.72,0,1.3-0.58,1.3-1.3V8.61h3.42V97.36z"/><path d="M58.21,14.37c-0.4-0.23-0.9-0.22-1.29,0.01c-0.4,0.23-0.64,0.66-0.64,1.12v50.1c0,6.1,0.52,14.21,4.97,14.21   c3.58,0,4.24-4.78,4.24-14.21c0-4.57-0.83-9.36-2.45-14.28l3.41-0.07c0.65-0.01,1.19-0.5,1.27-1.14   C71.21,21.99,58.74,14.67,58.21,14.37z M65.25,48.68l-4.07,0.08c-0.42,0.01-0.81,0.22-1.05,0.57c-0.24,0.35-0.29,0.79-0.15,1.18   c1.92,5.23,2.89,10.31,2.89,15.1c0,10.47-1.14,11.6-1.63,11.6c-0.1,0-2.37-0.13-2.37-11.6v-47.3c0.99,1.04,2.22,2.62,3.35,4.89   C64.43,27.61,66.7,35.59,65.25,48.68z"/><path d="M47.7,15.45C47.7,15.45,47.7,15.45,47.7,15.45c-0.72,0-1.3,0.58-1.3,1.3l0,14.62c0.02,1.1-0.03,2.1-0.12,3.02h-1.3V16.76   c0-0.72-0.58-1.3-1.3-1.3s-1.3,0.58-1.3,1.3V34.4h-1.42V16.76c0-0.72-0.58-1.3-1.3-1.3s-1.3,0.58-1.3,1.3V34.4H37.1   c-0.09-0.93-0.14-1.94-0.12-3.04l0-14.6c0-0.72-0.58-1.3-1.3-1.3c-0.72,0-1.3,0.58-1.3,1.3l0,14.58c-0.1,6.94,2.04,10.81,3.32,12.5   c0.28,0.36,0.41,0.87,0.36,1.37c-0.43,4.64-0.63,12.78-0.71,17.25c-0.03,1-0.05,2.05-0.05,3.1c0,0.01,0,0.02,0,0.03c0,0,0,0,0,0   c0,0,0,0.01,0,0.01c0,9.96,1.32,14.21,4.41,14.21c3.09,0,4.41-4.25,4.41-14.21c0-1.8-0.05-3.59-0.14-5.32   c-0.1-4.6-0.3-11.12-0.67-15.08c-0.05-0.51,0.09-1.01,0.36-1.37c1.28-1.69,3.42-5.56,3.32-12.49l0-14.6   C49,16.04,48.42,15.45,47.7,15.45z M43.6,42.26c-0.67,0.88-0.99,2.04-0.88,3.19c0.59,6.38,0.75,20.03,0.75,20.17   c0,0.11,0.02,0.21,0.04,0.31c-0.03,10.79-1.78,11.28-1.8,11.28c-0.02,0-1.8-0.5-1.8-11.59c0-0.21,0.16-13.81,0.75-20.17   c0.11-1.15-0.22-2.31-0.88-3.19c-0.69-0.9-1.66-2.58-2.26-5.26h8.35C45.26,39.68,44.29,41.36,43.6,42.26z"/></g><text x="0" y="115" fill="#000000" font-size="5px" font-weight="bold" font-family="'Helvetica Neue', Helvetica, Arial-Unicode, Arial, Sans-serif">Created by ABDUL LATIF</text><text x="0" y="120" fill="#000000" font-size="5px" font-weight="bold" font-family="'Helvetica Neue', Helvetica, Arial-Unicode, Arial, Sans-serif">from the Noun Project</text></svg>