<svg xmlns="http://www.w3.org/2000/svg" data-name="Layer 1" viewBox="0 0 512 640" x="0px" y="0px"><title>301-Fork and knife</title><path d="M196.39,499.59a43,43,0,0,1-31.32-13.65,37.83,37.83,0,0,1-10.42-28.65l15.89-228.71c-1.36-2.66-6.56-6.43-11.2-9.79-13.39-9.69-33.63-24.34-33.63-56.08a8.4,8.4,0,0,1,.07-1L144.44,19.14a7.73,7.73,0,0,1,15.36.35l10.11,118.7c12.87,0,20.65,0,28.26.06,7,0,13.92,0,24.55.05L232.86,19.49a7.73,7.73,0,0,1,15.36-.35l18.66,142.57a8.39,8.39,0,0,1,.06,1c0,33.73-22.76,50.09-36.37,59.87-2.95,2.13-6.86,4.93-8.33,6.57l15.88,228.14A37.89,37.89,0,0,1,227.66,486,42.93,42.93,0,0,1,196.39,499.59ZM141.17,163.2c.2,23.51,14.56,33.9,27.23,43.07,8,5.8,15.57,11.28,17.49,19.6a7.87,7.87,0,0,1,.18,2.27l-16,230.22a22.52,22.52,0,0,0,6.31,17.05,27.29,27.29,0,0,0,40,0,22.61,22.61,0,0,0,6.34-17.07l-16-230.22a7.59,7.59,0,0,1,.17-2.28c1.46-6.31,7.3-10.51,14.7-15.83,12.56-9,29.72-21.36,29.93-46.83l-9.3-71.13-4.66,54.62a7.74,7.74,0,0,1-7.71,7.07c-14.9,0-23.19,0-31.69-.06-8.91,0-18-.06-35.31-.06a7.73,7.73,0,0,1-7.7-7.07l-4.63-54.45Z"/><path d="M182.24,153.73a7.73,7.73,0,0,1-7.73-7.73V20.14a7.73,7.73,0,1,1,15.46,0V146A7.73,7.73,0,0,1,182.24,153.73Z"/><path d="M210.39,153.73a7.73,7.73,0,0,1-7.73-7.73V20.14a7.73,7.73,0,1,1,15.45,0V146A7.73,7.73,0,0,1,210.39,153.73Z"/><path d="M368.61,324.47H326.5a42.28,42.28,0,0,1-30.33-12.71,36.07,36.07,0,0,1-10.42-26.43c1.34-38.26,6.3-103.69,15.83-162.16,15.14-92.78,31.81-107.34,43-110.21,9.85-2.53,19.13,3.38,27.58,17.57h0c8.95,15.06,14.09,29.24,14.09,38.89V307.37C386.29,316.8,378.36,324.47,368.61,324.47ZM348.79,27.89a1.22,1.22,0,0,0-.34,0c-1.67.43-16.78,6.82-31.61,97.73-9.42,57.76-14.32,122.4-15.65,160.21a20.8,20.8,0,0,0,6.1,15.16,26.77,26.77,0,0,0,19.21,8h42.11a2.06,2.06,0,0,0,2.22-1.64V69.43c0-5.05-3.12-16.19-11.91-31h0C353.93,30.07,350.37,27.89,348.79,27.89Z"/><path d="M347.53,499.59c-19.43,0-35.24-15.12-35.24-33.7V316.14a7.73,7.73,0,1,1,15.45,0V465.89c0,10.05,8.88,18.24,19.79,18.24s19.78-8.19,19.78-18.24V314.49a7.73,7.73,0,1,1,15.46,0v151.4C382.77,484.47,367,499.59,347.53,499.59Z"/><path d="M348,276.33a7.73,7.73,0,0,1-7.72-7.73V153.91a7.73,7.73,0,0,1,15.45,0V268.6A7.73,7.73,0,0,1,348,276.33Z"/><text x="0" y="527" fill="#000000" font-size="5px" font-weight="bold" font-family="'Helvetica Neue', Helvetica, Arial-Unicode, Arial, Sans-serif">Created by perilous graphic</text><text x="0" y="532" fill="#000000" font-size="5px" font-weight="bold" font-family="'Helvetica Neue', Helvetica, Arial-Unicode, Arial, Sans-serif">from the Noun Project</text></svg>