<svg xmlns="http://www.w3.org/2000/svg" version="1.1" viewBox="-5.0 -10.0 110.0 135.0">
 <path d="m36.254 51.402 9.2734 6.1836c0.12891 0.085937 3.1172 2.2109 3.4922 7.1719l-0.003906 23.242h-7.3672c-0.55078 0-1 0.44922-1 1s0.44922 1 1 1h16.734c0.55078 0 1-0.44922 1-1s-0.44922-1-1-1h-7.3672l-0.003906-23.207v-0.015625c0.36719-4.9766 3.3672-7.1016 3.4844-7.1875l9.2812-6.1875c5.1328-3.4219 7.3477-9.8984 5.4023-15.688l-6.6211-24.973c-0.11328-0.4375-0.51172-0.74219-0.96484-0.74219h-23.152c-0.45312 0-0.85156 0.30469-0.96875 0.74219l-6.6016 24.91c-1.9648 5.8516 0.24609 12.328 5.3828 15.75zm2.957-39.402h21.617l3.8203 14.402c-6.4375-0.17578-9.7734-1.7969-13.289-3.5117-3.5469-1.7305-7.2109-3.5117-14.051-3.7109zm-6.4258 24.227 3.9922-15.059c6.707 0.11719 10.113 1.7656 13.703 3.5156 3.6562 1.7812 7.4453 3.6172 14.699 3.7227l2.0898 7.8789c1.6797 4.9961-0.21094 10.527-4.5977 13.449l-9.2891 6.1914c-0.11719 0.078125-2.0977 1.4492-3.3633 4.4688-1.2656-3.0117-3.2578-4.3945-3.3789-4.4727l-9.2812-6.1875c-4.3828-2.918-6.2734-8.4492-4.5742-13.508z"/>
<text x="0.0" y="117.5" font-size="5.0" font-weight="bold" font-family="Arbeit Regular, Helvetica, Arial-Unicode, Arial, Sans-serif" fill="#000000">Created by Made x Made</text><text x="0.0" y="122.5" font-size="5.0" font-weight="bold" font-family="Arbeit Regular, Helvetica, Arial-Unicode, Arial, Sans-serif" fill="#000000">from Noun Project</text></svg>